<svg width="17.000000" height="17.000000" viewBox="0 0 17 17" fill="none" xmlns="http://www.w3.org/2000/svg" xmlns:xlink="http://www.w3.org/1999/xlink">
	<desc>
			Created with Pixso.
	</desc>
	<defs/>
	<path id="Vector" d="M8 -0.13C6.02 -0.13 4.1 0.57 2.59 1.85C1.09 3.14 0.09 4.91 -0.23 6.87C-0.55 8.82 -0.16 10.82 0.86 12.51C1.89 14.21 3.48 15.48 5.36 16.11C5.78 16.18 5.93 15.93 5.93 15.71C5.93 15.51 5.92 14.86 5.92 14.16C3.83 14.54 3.29 13.65 3.12 13.18C2.93 12.72 2.64 12.32 2.27 12C1.97 11.85 1.56 11.46 2.26 11.45C2.52 11.48 2.78 11.57 3 11.72C3.22 11.87 3.41 12.07 3.54 12.3C3.65 12.51 3.8 12.69 3.99 12.84C4.17 12.98 4.38 13.09 4.61 13.15C4.83 13.22 5.07 13.23 5.3 13.21C5.53 13.18 5.76 13.11 5.96 12.99C6 12.57 6.19 12.17 6.5 11.88C4.64 11.67 2.7 10.95 2.7 7.76C2.69 6.93 3 6.13 3.56 5.52C3.3 4.8 3.33 4.01 3.64 3.32C3.64 3.32 4.34 3.1 5.93 4.17C7.3 3.79 8.74 3.79 10.1 4.17C11.69 3.09 12.39 3.32 12.39 3.32C12.7 4.01 12.73 4.8 12.47 5.52C13.04 6.13 13.34 6.93 13.33 7.76C13.33 10.96 11.38 11.67 9.53 11.88C9.72 12.08 9.88 12.32 9.97 12.59C10.07 12.85 10.11 13.14 10.09 13.42C10.09 14.53 10.08 15.43 10.08 15.71C10.08 15.93 10.23 16.19 10.65 16.11C12.52 15.48 14.11 14.2 15.13 12.51C16.15 10.81 16.54 8.81 16.22 6.86C15.9 4.91 14.9 3.13 13.39 1.85C11.88 0.57 9.97 -0.13 8 -0.13Z" fill="#12F7D6" fill-opacity="1.000000" fill-rule="nonzero"/>
</svg>
